<?xml version="1.0" encoding="UTF-8"?>
<!-- Kite Ground Control — short wordmark (white, transparent). Brand asset © Marc Hoffmann (b14ckyy). -->
<svg xmlns="http://www.w3.org/2000/svg" viewBox="150.5 269.6 549.1 310.4">
  <defs>
    <style>.cls-1 { fill: #fff; }</style>
  </defs>
  <g>
    <path class="cls-1" d="M190.98,316.27l62.7,62.7c-4.14.58-7.32,4.13-7.32,8.43v17.13c-25.48-4.4-56-7.02-85.26-2.9,6.18-30.69,15.92-59.79,29.88-85.36Z"/>
    <path class="cls-1" d="M200.24,408.54c-13.58-.46-27.44.1-40.86,2.21-4.7,26.56-6.84,54.12-6.81,81.49,12.95-39.22,38.06-72.04,47.67-83.7Z"/>
    <path class="cls-1" d="M292.22,397.09l-3.91,4.13-8.84-8.84v-4.98c0-4.7-3.8-8.51-8.5-8.51h-4.99l-68.82-68.81c25.58-13.96,54.68-23.7,85.37-29.88-6.05,42.86,2.4,88.45,9.69,116.89Z"/>
    <path class="cls-1" d="M373.13,271.67c-27.37-.03-54.93,2.11-81.49,6.81-2.11,13.42-2.66,27.28-2.21,40.86,11.65-9.61,44.47-34.72,83.7-47.67Z"/>
    <path class="cls-1" d="M343.75,342.91c-10.36,11.08-19.33,23.18-26.05,35.98h-4.59c-2.34,0-4.57.96-6.18,2.66l-7.47,7.9c-3.86-16.09-7.79-36.69-9.41-58.62,6.66.27,28.29,1.96,53.7,12.08Z"/>
    <path class="cls-1" d="M246.36,413.56v31.26c-7.88,5.28-15.42,11.37-22.55,18.03-10.12-25.41-11.81-47.05-12.08-53.69,12.13.9,23.85,2.5,34.63,4.4Z"/>
    <path class="cls-1" d="M203.59,418.42c-14.23,18.24-45.61,63.22-49.78,109.62,1.18,17.31,3.18,34.31,5.88,50.68,2.49-31.16,24.73-75.74,57.21-109.09-8.87-20.93-12.13-39.75-13.31-51.21Z"/>
    <path class="cls-1" d="M408.94,272.91c-46.41,4.17-91.38,35.56-109.62,49.78,11.46,1.18,30.28,4.44,51.21,13.31,33.35-32.48,77.93-54.73,109.09-57.21-16.37-2.7-33.36-4.7-50.67-5.88Z"/>
  </g>
  <g>
    <path class="cls-1" d="M254.87,485.4v-98h16.1v98h-16.1ZM314.09,485.4l-45.36-51.1,44.38-46.9h20.58l-49,50.96v-8.82l50.4,55.86h-21Z"/>
    <path class="cls-1" d="M354.69,405.88c-2.61,0-4.79-.89-6.51-2.66-1.73-1.77-2.59-3.97-2.59-6.58s.86-4.81,2.59-6.58c1.73-1.77,3.9-2.66,6.51-2.66s4.9.89,6.58,2.66c1.68,1.78,2.52,3.97,2.52,6.58s-.84,4.81-2.52,6.58c-1.68,1.77-3.87,2.66-6.58,2.66ZM346.99,485.4v-67.2h15.4v67.2h-15.4Z"/>
    <path class="cls-1" d="M373.72,432.2v-14h47.6v14h-47.6ZM389.83,485.4v-95.2h15.4v95.2h-15.4Z"/>
    <path class="cls-1" d="M461.79,486.8c-6.72,0-12.76-1.52-18.13-4.55-5.37-3.03-9.61-7.21-12.74-12.53-3.13-5.32-4.69-11.29-4.69-17.92s1.54-12.58,4.62-17.85c3.08-5.27,7.26-9.45,12.53-12.53,5.27-3.08,11.13-4.62,17.57-4.62s11.78,1.45,16.59,4.34c4.81,2.89,8.59,6.86,11.34,11.9,2.75,5.04,4.13,10.78,4.13,17.22,0,1.12-.07,2.26-.21,3.43-.14,1.17-.35,2.45-.63,3.85h-55.16v-12.6h47.18l-5.74,5.04c-.19-4.11-.98-7.56-2.38-10.36-1.4-2.8-3.38-4.95-5.95-6.44-2.57-1.49-5.72-2.24-9.45-2.24-3.92,0-7.33.84-10.22,2.52-2.9,1.68-5.13,4.04-6.72,7.07-1.59,3.03-2.38,6.65-2.38,10.85s.84,7.89,2.52,11.06c1.68,3.17,4.06,5.62,7.14,7.35,3.08,1.73,6.63,2.59,10.64,2.59,3.45,0,6.65-.6,9.59-1.82,2.94-1.21,5.44-2.99,7.49-5.32l9.8,9.94c-3.27,3.83-7.23,6.72-11.9,8.68-4.67,1.96-9.61,2.94-14.84,2.94Z"/>
    <path class="cls-1" d="M551.67,486.8c-6.72,0-13.07-1.31-19.04-3.92-5.97-2.61-11.2-6.23-15.68-10.85-4.48-4.62-8-9.99-10.57-16.1-2.57-6.11-3.85-12.67-3.85-19.67s1.28-13.53,3.85-19.6c2.57-6.07,6.11-11.41,10.64-16.03,4.53-4.62,9.85-8.21,15.96-10.78s12.72-3.85,19.81-3.85c7.75,0,14.93,1.49,21.56,4.48,6.63,2.99,12.18,7.23,16.66,12.74l-10.92,10.92c-2.89-4.11-6.77-7.26-11.62-9.45-4.85-2.19-10.08-3.29-15.68-3.29-6.72,0-12.62,1.47-17.71,4.41-5.09,2.94-9.03,7.03-11.83,12.25-2.8,5.23-4.2,11.29-4.2,18.2s1.42,13,4.27,18.27c2.85,5.27,6.7,9.4,11.55,12.39,4.85,2.99,10.36,4.48,16.52,4.48,6.53,0,12.16-1.19,16.87-3.57,4.71-2.38,8.33-5.93,10.85-10.64,2.52-4.71,3.78-10.52,3.78-17.43l10.08,7.28h-41.86v-14.7h48.44v2.24c0,11.67-2.08,21.37-6.23,29.12-4.15,7.75-9.83,13.54-17.01,17.36-7.19,3.83-15.4,5.74-24.64,5.74Z"/>
    <path class="cls-1" d="M661.14,486.8c-7.09,0-13.65-1.28-19.67-3.85-6.02-2.57-11.27-6.16-15.75-10.78-4.48-4.62-7.93-9.99-10.36-16.1-2.43-6.11-3.64-12.67-3.64-19.67s1.21-13.56,3.64-19.67c2.43-6.11,5.88-11.46,10.36-16.03,4.48-4.57,9.73-8.17,15.75-10.78,6.02-2.61,12.57-3.92,19.67-3.92,7.93,0,14.79,1.31,20.58,3.92,5.78,2.61,10.92,6.16,15.4,10.64l-10.92,10.92c-2.89-3.17-6.42-5.64-10.57-7.42-4.15-1.77-8.98-2.66-14.49-2.66-4.85,0-9.29.84-13.3,2.52-4.01,1.68-7.49,4.08-10.43,7.21-2.94,3.13-5.2,6.84-6.79,11.13-1.59,4.29-2.38,9.01-2.38,14.14s.79,9.85,2.38,14.14c1.59,4.29,3.85,8,6.79,11.13s6.42,5.53,10.43,7.21c4.01,1.68,8.45,2.52,13.3,2.52,5.97,0,11.04-.91,15.19-2.73,4.15-1.82,7.68-4.32,10.57-7.49l10.92,10.92c-4.48,4.57-9.75,8.17-15.82,10.78-6.07,2.61-13.02,3.92-20.86,3.92Z"/>
  </g>
</svg>
