<?xml version="1.0" encoding="UTF-8"?>
<!-- Kite Ground Control — full colour logo (dark text, for light backgrounds). Brand asset © Marc Hoffmann (b14ckyy). -->
<svg xmlns="http://www.w3.org/2000/svg" viewBox="78.8 379.3 692.6 91.5">
  <defs>
    <style>
      .cls-1 { fill: #3d3f3e; }
      .cls-2 { fill: #f5a623; }
      .cls-3 { fill: #37a8db; }
    </style>
  </defs>
  <g>
    <path class="cls-3" d="M107.58,409.64v9.61c-7.22-1.23-15.84-1.95-24.11-.79,1.77-8.77,4.55-17.08,8.54-24.39l15.57,15.57Z"/>
    <path class="cls-1" d="M94.66,420.44c-3.88-.13-7.84.03-11.67.63-1.34,7.59-1.95,15.46-1.95,23.28,3.7-11.21,10.87-20.58,13.62-23.91Z"/>
    <path class="cls-3" d="M118.45,404.65h-8.04c-1.15,0-2.15.7-2.59,1.69l-14.04-14.04c7.3-3.99,15.62-6.77,24.39-8.53-1,7.06-.62,14.39.28,20.88Z"/>
    <path class="cls-1" d="M144.05,381.33c-7.82,0-15.69.6-23.28,1.95-.6,3.84-.76,7.79-.63,11.67,3.33-2.75,12.71-9.92,23.91-13.62Z"/>
    <path class="cls-1" d="M135.66,401.68c-5.29,5.65-9.32,12.25-10.66,19.24-.06.28-.11.56-.16.84-.05-.16-.1-.33-.15-.51-.79-2.61-1.89-6.68-2.82-11.54v-2.22c0-.72-.27-1.38-.71-1.88-.36-2.36-.65-4.84-.84-7.38,1.9.08,8.08.56,15.34,3.45Z"/>
    <path class="cls-1" d="M107.58,421.84v9.13c-2.16,1.47-4.23,3.15-6.19,4.98-2.89-7.26-3.38-13.44-3.45-15.34,3.37.25,6.63.7,9.64,1.23Z"/>
    <path class="cls-2" d="M95.61,423.26c-4.06,5.21-13.03,18.06-14.22,31.32.34,4.95.91,9.8,1.68,14.48.71-8.9,7.07-21.64,16.35-31.17-2.54-5.98-3.47-11.36-3.8-14.63Z"/>
    <path class="cls-2" d="M154.29,381.69c-13.26,1.19-26.11,10.16-31.32,14.22,3.27.34,8.65,1.27,14.63,3.8,9.53-9.28,22.26-15.64,31.17-16.35-4.68-.77-9.53-1.34-14.48-1.68Z"/>
  </g>
  <g>
    <path class="cls-1" d="M110.41,459.99v-52.5h8.63v52.5h-8.63ZM142.14,459.99l-24.3-27.38,23.77-25.13h11.02l-26.25,27.3v-4.72l27,29.92h-11.25Z"/>
    <path class="cls-1" d="M163.89,417.39c-1.4,0-2.56-.47-3.49-1.42-.93-.95-1.39-2.12-1.39-3.52s.46-2.57,1.39-3.53c.92-.95,2.09-1.42,3.49-1.42s2.63.48,3.52,1.42c.9.95,1.35,2.13,1.35,3.53s-.45,2.58-1.35,3.52c-.9.95-2.08,1.42-3.52,1.42ZM159.76,459.99v-36h8.25v36h-8.25Z"/>
    <path class="cls-1" d="M174.09,431.49v-7.5h25.5v7.5h-25.5ZM182.71,459.99v-51h8.25v51h-8.25Z"/>
    <path class="cls-1" d="M221.26,460.74c-3.6,0-6.84-.81-9.71-2.44-2.88-1.62-5.15-3.86-6.82-6.71-1.68-2.85-2.51-6.05-2.51-9.6s.83-6.74,2.48-9.56c1.65-2.82,3.89-5.06,6.71-6.71,2.82-1.65,5.96-2.48,9.41-2.48s6.31.78,8.89,2.33c2.57,1.55,4.6,3.67,6.08,6.38,1.47,2.7,2.21,5.77,2.21,9.22,0,.6-.04,1.21-.11,1.84-.08.63-.19,1.31-.34,2.06h-29.55v-6.75h25.27l-3.07,2.7c-.1-2.2-.52-4.05-1.27-5.55s-1.81-2.65-3.19-3.45c-1.38-.8-3.06-1.2-5.06-1.2-2.1,0-3.93.45-5.48,1.35-1.55.9-2.75,2.16-3.6,3.79-.85,1.63-1.27,3.56-1.27,5.81s.45,4.23,1.35,5.93c.9,1.7,2.17,3.01,3.82,3.94,1.65.93,3.55,1.39,5.7,1.39,1.85,0,3.56-.32,5.14-.98,1.58-.65,2.91-1.6,4.01-2.85l5.25,5.32c-1.75,2.05-3.88,3.6-6.38,4.65-2.5,1.05-5.15,1.58-7.95,1.58Z"/>
    <path class="cls-1" d="M284.41,460.74c-3.6,0-7-.7-10.2-2.1-3.2-1.4-6-3.34-8.4-5.81-2.4-2.48-4.29-5.35-5.66-8.63-1.38-3.27-2.06-6.79-2.06-10.54s.69-7.25,2.06-10.5c1.37-3.25,3.27-6.11,5.7-8.59,2.42-2.48,5.27-4.4,8.55-5.77,3.27-1.37,6.81-2.06,10.61-2.06,4.15,0,8,.8,11.55,2.4,3.55,1.6,6.53,3.88,8.93,6.83l-5.85,5.85c-1.55-2.2-3.63-3.89-6.23-5.06-2.6-1.17-5.4-1.76-8.4-1.76-3.6,0-6.76.79-9.49,2.36-2.73,1.58-4.84,3.76-6.34,6.56-1.5,2.8-2.25,6.05-2.25,9.75s.76,6.96,2.29,9.79c1.52,2.83,3.59,5.04,6.19,6.64,2.6,1.6,5.55,2.4,8.85,2.4,3.5,0,6.51-.64,9.04-1.91,2.52-1.27,4.46-3.17,5.81-5.7,1.35-2.52,2.02-5.64,2.02-9.34l5.4,3.9h-22.42v-7.88h25.95v1.2c0,6.25-1.11,11.45-3.34,15.6-2.23,4.15-5.26,7.25-9.11,9.3-3.85,2.05-8.25,3.08-13.2,3.08Z"/>
    <path class="cls-1" d="M317.49,459.99v-36h8.25v36h-8.25ZM325.74,439.97l-2.85-1.43c0-4.55,1.01-8.24,3.04-11.06,2.02-2.82,5.09-4.24,9.19-4.24,1.8,0,3.42.33,4.88.98,1.45.65,2.8,1.7,4.05,3.15l-5.4,5.55c-.65-.7-1.38-1.2-2.18-1.5-.8-.3-1.72-.45-2.77-.45-2.3,0-4.2.73-5.7,2.17-1.5,1.45-2.25,3.73-2.25,6.83Z"/>
    <path class="cls-1" d="M363.46,460.74c-3.5,0-6.68-.84-9.53-2.51-2.85-1.67-5.11-3.94-6.79-6.79-1.68-2.85-2.51-6.02-2.51-9.53s.84-6.65,2.51-9.45c1.67-2.8,3.94-5.04,6.79-6.71,2.85-1.67,6.02-2.51,9.53-2.51s6.75.83,9.6,2.48c2.85,1.65,5.11,3.89,6.79,6.71,1.67,2.83,2.51,5.99,2.51,9.49s-.84,6.68-2.51,9.53c-1.68,2.85-3.94,5.11-6.79,6.79-2.85,1.68-6.05,2.51-9.6,2.51ZM363.46,452.79c2.05,0,3.86-.46,5.44-1.39,1.57-.92,2.8-2.21,3.67-3.86.87-1.65,1.31-3.52,1.31-5.63s-.45-3.95-1.35-5.55c-.9-1.6-2.13-2.86-3.67-3.79-1.55-.92-3.35-1.39-5.4-1.39s-3.79.46-5.36,1.39c-1.57.93-2.8,2.19-3.67,3.79-.88,1.6-1.31,3.45-1.31,5.55s.44,3.98,1.31,5.63c.87,1.65,2.1,2.94,3.67,3.86,1.58.93,3.36,1.39,5.36,1.39Z"/>
    <path class="cls-1" d="M403.96,460.74c-3.05,0-5.76-.67-8.14-2.02-2.38-1.35-4.23-3.21-5.55-5.59-1.33-2.37-1.99-5.11-1.99-8.21v-20.92h8.25v20.55c0,1.75.29,3.24.86,4.46.57,1.23,1.42,2.16,2.55,2.81,1.13.65,2.46.97,4.01.97,2.4,0,4.24-.71,5.51-2.14,1.28-1.43,1.91-3.46,1.91-6.11v-20.55h8.25v20.92c0,3.15-.66,5.91-1.99,8.29-1.33,2.38-3.16,4.23-5.51,5.55-2.35,1.32-5.08,1.99-8.17,1.99Z"/>
    <path class="cls-1" d="M427.96,459.99v-36h8.25v36h-8.25ZM452.64,459.99v-20.77c0-2.4-.76-4.37-2.29-5.93-1.53-1.55-3.49-2.32-5.89-2.32-1.6,0-3.03.35-4.28,1.05-1.25.7-2.23,1.68-2.92,2.93-.7,1.25-1.05,2.68-1.05,4.27l-3.23-1.8c0-2.75.6-5.19,1.8-7.31,1.2-2.12,2.86-3.8,4.99-5.02,2.12-1.22,4.51-1.84,7.16-1.84s5.1.69,7.2,2.06c2.1,1.38,3.75,3.15,4.95,5.33,1.2,2.17,1.8,4.44,1.8,6.79v22.58h-8.25Z"/>
    <path class="cls-1" d="M484.36,460.74c-3.25,0-6.19-.83-8.81-2.48s-4.7-3.89-6.23-6.71c-1.53-2.82-2.29-5.99-2.29-9.49s.76-6.74,2.29-9.56c1.52-2.82,3.6-5.07,6.23-6.75,2.63-1.67,5.56-2.51,8.81-2.51,2.75,0,5.19.59,7.31,1.76,2.12,1.18,3.81,2.79,5.06,4.84,1.25,2.05,1.88,4.38,1.88,6.98v10.35c0,2.6-.61,4.93-1.84,6.98-1.23,2.05-2.91,3.66-5.06,4.84-2.15,1.17-4.6,1.76-7.35,1.76ZM485.71,452.94c2.05,0,3.84-.46,5.36-1.39,1.52-.92,2.71-2.21,3.56-3.86.85-1.65,1.28-3.55,1.28-5.7s-.43-4.05-1.28-5.7c-.85-1.65-2.04-2.94-3.56-3.86-1.53-.92-3.31-1.39-5.36-1.39s-3.76.46-5.29,1.39c-1.53.93-2.73,2.21-3.6,3.86-.88,1.65-1.31,3.55-1.31,5.7s.44,4.05,1.31,5.7c.87,1.65,2.07,2.94,3.6,3.86,1.52.93,3.29,1.39,5.29,1.39ZM503.64,459.99h-8.25v-9.67l1.43-8.78-1.43-8.7v-26.85h8.25v54Z"/>
    <path class="cls-1" d="M552.76,460.74c-3.8,0-7.31-.69-10.54-2.06-3.23-1.37-6.04-3.3-8.44-5.77-2.4-2.48-4.25-5.35-5.55-8.63-1.3-3.27-1.95-6.79-1.95-10.54s.65-7.26,1.95-10.54c1.3-3.27,3.15-6.14,5.55-8.59,2.4-2.45,5.21-4.37,8.44-5.77,3.22-1.4,6.74-2.1,10.54-2.1,4.25,0,7.92.7,11.03,2.1,3.1,1.4,5.85,3.3,8.25,5.7l-5.85,5.85c-1.55-1.7-3.44-3.02-5.66-3.98-2.23-.95-4.81-1.42-7.76-1.42-2.6,0-4.98.45-7.13,1.35-2.15.9-4.01,2.19-5.59,3.86-1.57,1.68-2.79,3.66-3.64,5.96-.85,2.3-1.28,4.83-1.28,7.58s.42,5.28,1.28,7.58c.85,2.3,2.06,4.29,3.64,5.96,1.58,1.68,3.44,2.96,5.59,3.86,2.15.9,4.52,1.35,7.13,1.35,3.2,0,5.91-.49,8.14-1.46,2.22-.98,4.11-2.31,5.66-4.01l5.85,5.85c-2.4,2.45-5.23,4.38-8.48,5.77-3.25,1.4-6.98,2.1-11.18,2.1Z"/>
    <path class="cls-1" d="M594.46,460.74c-3.5,0-6.68-.84-9.53-2.51-2.85-1.67-5.11-3.94-6.79-6.79-1.68-2.85-2.51-6.02-2.51-9.53s.84-6.65,2.51-9.45c1.67-2.8,3.94-5.04,6.79-6.71,2.85-1.67,6.02-2.51,9.53-2.51s6.75.83,9.6,2.48c2.85,1.65,5.11,3.89,6.79,6.71,1.67,2.83,2.51,5.99,2.51,9.49s-.84,6.68-2.51,9.53c-1.68,2.85-3.94,5.11-6.79,6.79-2.85,1.68-6.05,2.51-9.6,2.51ZM594.46,452.79c2.05,0,3.86-.46,5.44-1.39,1.57-.92,2.8-2.21,3.67-3.86.87-1.65,1.31-3.52,1.31-5.63s-.45-3.95-1.35-5.55c-.9-1.6-2.13-2.86-3.67-3.79-1.55-.92-3.35-1.39-5.4-1.39s-3.79.46-5.36,1.39c-1.57.93-2.8,2.19-3.67,3.79-.88,1.6-1.31,3.45-1.31,5.55s.44,3.98,1.31,5.63c.87,1.65,2.1,2.94,3.67,3.86,1.58.93,3.36,1.39,5.36,1.39Z"/>
    <path class="cls-1" d="M620.18,459.99v-36h8.25v36h-8.25ZM644.86,459.99v-20.77c0-2.4-.76-4.37-2.29-5.93-1.53-1.55-3.49-2.32-5.89-2.32-1.6,0-3.03.35-4.28,1.05-1.25.7-2.23,1.68-2.92,2.93-.7,1.25-1.05,2.68-1.05,4.27l-3.23-1.8c0-2.75.6-5.19,1.8-7.31,1.2-2.12,2.86-3.8,4.99-5.02,2.12-1.22,4.51-1.84,7.16-1.84s5.1.69,7.2,2.06c2.1,1.38,3.75,3.15,4.95,5.33,1.2,2.17,1.8,4.44,1.8,6.79v22.58h-8.25Z"/>
    <path class="cls-1" d="M657.91,431.49v-7.5h25.5v7.5h-25.5ZM666.53,459.99v-51h8.25v51h-8.25Z"/>
    <path class="cls-1" d="M689.41,459.99v-36h8.25v36h-8.25ZM697.66,439.97l-2.85-1.43c0-4.55,1.01-8.24,3.04-11.06,2.02-2.82,5.09-4.24,9.19-4.24,1.8,0,3.42.33,4.88.98,1.45.65,2.8,1.7,4.05,3.15l-5.4,5.55c-.65-.7-1.38-1.2-2.18-1.5-.8-.3-1.72-.45-2.77-.45-2.3,0-4.2.73-5.7,2.17-1.5,1.45-2.25,3.73-2.25,6.83Z"/>
    <path class="cls-1" d="M735.38,460.74c-3.5,0-6.68-.84-9.53-2.51-2.85-1.67-5.11-3.94-6.79-6.79-1.68-2.85-2.51-6.02-2.51-9.53s.84-6.65,2.51-9.45c1.67-2.8,3.94-5.04,6.79-6.71,2.85-1.67,6.02-2.51,9.53-2.51s6.75.83,9.6,2.48c2.85,1.65,5.11,3.89,6.79,6.71,1.67,2.83,2.51,5.99,2.51,9.49s-.84,6.68-2.51,9.53c-1.68,2.85-3.94,5.11-6.79,6.79-2.85,1.68-6.05,2.51-9.6,2.51ZM735.38,452.79c2.05,0,3.86-.46,5.44-1.39,1.57-.92,2.8-2.21,3.67-3.86.87-1.65,1.31-3.52,1.31-5.63s-.45-3.95-1.35-5.55c-.9-1.6-2.13-2.86-3.67-3.79-1.55-.92-3.35-1.39-5.4-1.39s-3.79.46-5.36,1.39c-1.57.93-2.8,2.19-3.67,3.79-.88,1.6-1.31,3.45-1.31,5.55s.44,3.98,1.31,5.63c.87,1.65,2.1,2.94,3.67,3.86,1.58.93,3.36,1.39,5.36,1.39Z"/>
    <path class="cls-1" d="M761.11,459.99v-54h8.25v54h-8.25Z"/>
  </g>
</svg>
